<svg xmlns="http://www.w3.org/2000/svg" width="600" height="200" viewBox="0 0 600 200">
  <defs>
    <style>
      .cls-1 {
        fill: #fff8dd;
        fill-rule: evenodd;
      }
    </style>
  </defs>
  <path id="矩形_6_拷贝_10" data-name="矩形 6 拷贝 10" class="cls-1" d="M0,0H600V200H0V0ZM20,47.5a5,5,0,0,1,5,5v95a5,5,0,0,1-10,0v-95A5,5,0,0,1,20,47.5ZM40,40a5,5,0,0,1,5,5V155a5,5,0,0,1-10,0V45A5,5,0,0,1,40,40ZM60,70a5,5,0,0,1,5,5v50a5,5,0,0,1-10,0V75A5,5,0,0,1,60,70ZM80,55a5,5,0,0,1,5,5v80a5,5,0,0,1-10,0V60A5,5,0,0,1,80,55Zm20,30a5,5,0,0,1,5,5v20a5,5,0,0,1-10,0V90A5,5,0,0,1,100,85Zm20-15a5,5,0,0,1,5,5v50a5,5,0,0,1-10,0V75A5,5,0,0,1,120,70Zm20,7.5a5,5,0,0,1,5,5v35a5,5,0,0,1-10,0v-35A5,5,0,0,1,140,77.5ZM160,70a5,5,0,0,1,5,5v50a5,5,0,0,1-10,0V75A5,5,0,0,1,160,70Zm20-15a5,5,0,0,1,5,5v80a5,5,0,0,1-10,0V60A5,5,0,0,1,180,55Zm20,30a5,5,0,0,1,5,5v20a5,5,0,0,1-10,0V90A5,5,0,0,1,200,85Zm20,0a5,5,0,0,1,5,5v20a5,5,0,0,1-10,0V90A5,5,0,0,1,220,85Zm20-7.5a5,5,0,0,1,5,5v35a5,5,0,0,1-10,0v-35A5,5,0,0,1,240,77.5ZM260,70a5,5,0,0,1,5,5v50a5,5,0,0,1-10,0V75A5,5,0,0,1,260,70Zm20-15a5,5,0,0,1,5,5v80a5,5,0,0,1-10,0V60A5,5,0,0,1,280,55Zm20,30a5,5,0,0,1,5,5v20a5,5,0,0,1-10,0V90A5,5,0,0,1,300,85Zm20-37.5a5,5,0,0,1,5,5v95a5,5,0,0,1-10,0v-95A5,5,0,0,1,320,47.5ZM340,40a5,5,0,0,1,5,5V155a5,5,0,0,1-10,0V45A5,5,0,0,1,340,40Zm20,30a5,5,0,0,1,5,5v50a5,5,0,0,1-10,0V75A5,5,0,0,1,360,70Zm20-15a5,5,0,0,1,5,5v80a5,5,0,0,1-10,0V60A5,5,0,0,1,380,55Zm20,30a5,5,0,0,1,5,5v20a5,5,0,0,1-10,0V90A5,5,0,0,1,400,85Zm20-37.5a5,5,0,0,1,5,5v95a5,5,0,0,1-10,0v-95A5,5,0,0,1,420,47.5ZM440,55a5,5,0,0,1,5,5v80a5,5,0,0,1-10,0V60A5,5,0,0,1,440,55Zm20,15a5,5,0,0,1,5,5v50a5,5,0,0,1-10,0V75A5,5,0,0,1,460,70Zm20-15a5,5,0,0,1,5,5v80a5,5,0,0,1-10,0V60A5,5,0,0,1,480,55Zm20,30a5,5,0,0,1,5,5v20a5,5,0,0,1-10,0V90A5,5,0,0,1,500,85Zm20-37.5a5,5,0,0,1,5,5v95a5,5,0,0,1-10,0v-95A5,5,0,0,1,520,47.5ZM540,70a5,5,0,0,1,5,5v50a5,5,0,0,1-10,0V75A5,5,0,0,1,540,70Zm20,0a5,5,0,0,1,5,5v50a5,5,0,0,1-10,0V75A5,5,0,0,1,560,70Zm20,15a5,5,0,0,1,5,5v20a5,5,0,0,1-10,0V90A5,5,0,0,1,580,85Z"/>
</svg>
